<?xml version="1.0" encoding="UTF-8"?>
<svg version="1.1" xmlns="http://www.w3.org/2000/svg" width="200" height="200">
<path d="M0 0 C5.28 0 10.56 0 16 0 C16.33 23.43 16.66 46.86 17 71 C30.365 57.635 30.365 57.635 44 44 C48.22784833 47.62387 52.15867097 51.04226706 56 55 C54.4819272 58.5747899 52.38425289 60.85811724 49.64208984 63.58496094 C48.29091568 64.93590851 48.29091568 64.93590851 46.91244507 66.31414795 C45.92871592 67.28766481 44.9448775 68.26107125 43.9609375 69.234375 C42.95444872 70.23713161 41.94840211 71.24033222 40.94277954 72.24395752 C38.30037853 74.87873813 35.65202572 77.50745611 33.00238037 80.13494873 C30.29743948 82.81939688 27.59818179 85.50954622 24.8984375 88.19921875 C19.60449826 93.47173618 14.30425717 98.73786057 9 104 C5.4252101 102.4819272 3.14188276 100.38425289 0.41503906 97.64208984 C-0.48559265 96.74130707 -1.38622437 95.84052429 -2.31414795 94.91244507 C-3.28766481 93.92871592 -4.26107125 92.9448775 -5.234375 91.9609375 C-6.23713161 90.95444872 -7.24033222 89.94840211 -8.24395752 88.94277954 C-10.87873813 86.30037853 -13.50745611 83.65202572 -16.13494873 81.00238037 C-18.81939688 78.29743948 -21.50954622 75.59818179 -24.19921875 72.8984375 C-29.47173618 67.60449826 -34.73786057 62.30425717 -40 57 C-38.30413874 53.36696916 -36.26199512 51.05450954 -33.375 48.25 C-32.55773438 47.45078125 -31.74046875 46.6515625 -30.8984375 45.828125 C-30.27195312 45.22484375 -29.64546875 44.6215625 -29 44 C-19.15565588 52.43800924 -10.16818169 61.83181831 -1 71 C-0.67 47.57 -0.34 24.14 0 0 Z " fill="white" transform="translate(95,31)"/>
<path d="M0 0 C29.04 0 58.08 0 88 0 C88 5.28 88 10.56 88 16 C58.96 16 29.92 16 0 16 C0 10.72 0 5.44 0 0 Z " fill="white" transform="translate(59,143)"/>
</svg>
