<svg xmlns="http://www.w3.org/2000/svg" version="1.1" viewBox="0 0 2048 2048" width="1280" height="1280">
<path transform="translate(715,328)" d="m0 0h27l17 3 15 5 15 8 12 9 12 11 9 12 8 14 6 15 3 12 1 9 1 24v1137l-1 25-2 19-4 15-8 16-7 11-9 11h-2v2h-2v2l-11 9-14 9-12 5-17 5-11 2h-23l-21-4-16-6-13-7-13-11-8-7-11-15-10-21-4-14-3-24-1-27v-1126l2-32 4-20 5-13 10-16 11-14 8-8 11-8 16-9 13-5zm6 45-14 4-16 8-8 7-7 10-6 11-3 15-1 17-1 1040v115l2 22 4 16 4 8 13 13 19 10 14 4 13 1 14-3 11-5 11-7 9-8 7-11 4-12 2-12 1-11 1-33v-1139l-2-11-4-11-7-12-7-8-13-10-11-5-11-3z" fill="#0868a7"/>
<path transform="translate(1897,758)" d="m0 0h30l15 3 15 5 17 9 10 8 14 14 7 10 7 12 6 15 4 15 1 7 1 19v272l-1 37-2 16-4 15-5 12-9 14-8 11-11 12-10 7-15 8-21 7-20 4h-11l-14-2-16-5-12-5-13-7-10-8-9-8-11-14-7-12-8-18-4-18-2-22v-304l2-18 6-21 8-15 12-17 13-13 18-12 14-7 16-5z" fill="#0868a7"/>
<path transform="translate(1311,758)" d="m0 0h28l16 3 18 6 11 6 11 8 11 10 9 11 9 14 7 15 4 16 1 10 1 43v77l-1 200-1 18-3 16-6 15-9 16-11 13-10 10-14 9-16 7-21 6-12 2h-17l-20-4-19-7-15-9-12-11-9-9-9-13-8-16-6-19-2-13-1-14-1-43v-56l1-199 1-19 3-17 5-14 10-19 9-11 11-12 17-12 16-8 16-5z" fill="#0868a7"/>
<path transform="translate(119,758)" d="m0 0h29l15 3 15 5 13 7 14 10 11 11 9 12 9 16 5 13 4 18 1 11v306l-1 21-4 20-5 13-8 14-8 11-9 10-8 7-10 7-14 7-19 6-20 4-18-1-18-4-16-6-15-9-15-14-9-10-10-15-7-15-5-17-2-25v-314l2-16 6-18 7-13 8-12 12-14 9-8 13-8 12-6 15-5z" fill="#0868a7"/>
<path transform="translate(1019,570)" d="m0 0h17l16 2 14 4 12 5 16 10 10 8 7 8 9 11 10 18 5 14 3 18 1 36-1 657-2 24-4 18-5 12-7 12-8 10-2 3h-2l-2 4-4 4h-2v2l-12 9-16 8-19 5-10 2h-32l-15-3-15-5-12-6-16-12-9-9-9-13-8-15-6-18-3-17-1-9-1-20v-76l1-595 2-16 5-17 8-16 9-14 11-12 10-9 18-11 16-7 12-3zm3 46-12 2-11 4-10 6-10 10-7 11-6 13-2 10-1 62-1 551v67l2 23 5 17 7 14 4 5 13 10 17 7 9 2h20l13-4 13-7 11-10 8-11 4-12 3-26 1-514v-54l-1-114-2-15-4-11-6-10-11-12-14-9-12-4-9-1z" fill="#0868a7"/>
<path transform="translate(1605,570)" d="m0 0h16l18 2 14 4 12 5 12 7 13 11 11 11 7 10 6 10 8 20 2 10 1 11v687l-1 21-2 14-6 18-10 18-9 11-3 4h-2v2h-2v2l-16 11-16 8-18 5-19 3h-19l-14-2-16-5-16-8-11-8-12-11-10-13-7-12-6-17-4-18-1-9-1-21v-678l3-20 6-17 8-15 10-13 15-15 13-9 19-9 16-4zm6 46-13 2-11 4-10 6-10 9-7 10-6 12-2 6-1 11-1 46-1 619 1 23 2 17 5 14 8 12 9 9 10 6 13 5 14 3h10l10-2 12-5 10-6 10-9 7-11 5-11 2-11 1-11 1-307v-370l-1-16-4-14-7-13-9-11-12-9-11-5-8-2z" fill="#0868a7"/>
<path transform="translate(412,571)" d="m0 0h36l19 4 18 8 13 9 14 12 9 11 8 13 7 15 3 9 2 14 1 20v68l-1 605-1 22-3 17-5 14-9 16-9 12h-2l-2 4-10 9-13 8-15 7-20 5-15 2h-15l-16-2-15-4-14-6-12-8-13-12-8-9-9-14-5-11-5-17-3-17-1-14-1-605v-68l1-19 3-18 6-15 6-12 10-14 12-13 13-10 19-10 17-5zm17 45-14 2-12 4-13 9-7 7-9 14-5 13-1 8-1 26-1 543v115l2 21 5 16 8 12 4 5 10 8 12 6 13 4 5 1h16l13-4 15-8 12-11 8-13 3-6 3-22 1-489v-183l-1-22-3-13-8-15-9-10-9-8-14-7-8-2z" fill="#0868a7"/>
</svg>