<svg xmlns="http://www.w3.org/2000/svg" version="1.1" viewBox="0 0 2048 2048" width="1280" height="1280">
<path transform="translate(1032,955)" d="m0 0h19l19 3 18 6 17 9 13 10 12 12 11 15 7 12 7 20 4 15 1 7v70l19-4 12-3 8-1h26l20 4 15 5 16 9 10 8 11 10 9 11 6 9 8 16 4 6 1 1 9-1 20-7 18-3h25l16 3 12 4 16 8 11 7 8 7 5 5 11 13 4 4 6 2 7-3 12-6 15-5 14-3 7-1h26l15 3 18 6 16 8 12 9 16 16 9 13 8 14 7 19 3 13 1 13v371l-1 38-3 30-6 34-7 24-6 16-7 16-10 19-9 14-8 12-12 17-12 14-18 18-11 9-7 6-13 9-17 11-19 11-27 13-24 9-19 6-10 3h-4l-1 2h-2l-1 3-4-1-1 1h-431l-1-2-8 1h-2l-3 1 1-5-34-10-34-12-18-8-22-12-15-10-13-10-8-7-10-9-6-5-7-8-10-10-18-22-12-18-12-21-10-21-9-23-8-28-4-21-3-28-1-17v-152l1-160 3-26 5-19 8-16 7-13 8-11 13-14 17-13 20-11 16-6 12-3 15-2h22l18 2 28 9 12 4-1-32 1-215 3-17 7-21 8-15 8-12 9-10 8-8 13-9 15-8 18-6 15-3zm-1 69-10 3-12 7-12 12-5 11-2 9-1 26-1 458-1 26-2 9-6 8-14 7-4 1h-15l-11-4-7-8-5-11-2-9-1-10v-33l1-95-3-16-5-12-6-11-10-11-10-7-14-6-15-3h-12l-18 4-12 6-10 9-8 9-9 17-2 7-2 29-1 140v158l3 31 5 25 8 26 14 29 10 16 13 17 13 15 12 12 11 9 13 10 19 12 16 8 20 9 24 7 21 4 33 3 28 1 201 1h109l33-2 27-4 26-8 21-9 17-9 20-13 12-9 13-11 17-17 9-11 14-19 13-24 5-11 12-37 3-16 2-22 1-18 1-329v-55l-2-20-4-11-7-10-10-9-12-6-6-2h-18l-12 4-11 7-7 6v2h-2l-6 10-3 7-1 6-1 27-1 177-1 33-2 9-6 8-9 5-13 3h-10l-8-2-6-3-4-5-6-12-2-8-1-26v-235l-4-13-7-14-9-10-9-6-8-3-15-2-11 1-14 7-10 9-7 9-5 10-2 18-1 192-1 55-3 21-5 9-4 3-14 4h-16l-10-3-6-4-4-7-3-9-1-9-1-30-1-297-3-12-8-15-10-11-14-7-4-1h-21l-10 3-10 6-12 12-5 9-3 11-1 10-1 266-1 62-3 12-7 9-5 3-9 2h-18l-10-3-6-4-5-10-3-11-1-14-1-488-4-16-7-12-9-9-8-5-12-4zm-57 1020m434 2 4 1z" fill="#0d66a2"/>
<path transform="translate(202)" d="m0 0h1642l1 3 25 11 14 8 14 11 15 15 12 17 7 12 8 20 4 17 2 28v353l-1 181-2 29-3 15-9 23-10 16-8 10-9 10-11 10-14 10-19 9-13 4-19 3-21 2-19 1h-351l-10-2-6-4-10-15-2-6v-11l4-11 7-9 7-7 6-2 37-1 334-1 18-2 11-3 16-8 10-9 9-13 3-10 3-24 1-31 1-290v-208l-1-22-3-15-5-12-6-9-10-10-11-7-9-4-21-3-129-1h-1223l-217 1-19 2-15 5-11 7-6 5-9 12-6 12-2 9-1 9-1 398v156l2 17 5 13 7 10 5 6 12 9 12 6 11 3 9 1 391 1 20 1 11 4 8 7 4 8 1 5v17l-5 12-6 8-7 4-15 2h-392l-26-2-18-3-18-6-17-9-12-9-15-14-9-11-10-16-9-19-4-13-3-17-2-33v-529l1-19 4-18 8-21 8-15 12-17 16-16 18-13 27-14z" fill="#0d66a2"/>
<path transform="translate(334,205)" d="m0 0h17l10 5 9 10 7 10 15 23 11 18 36 57 21 35 10 18v2l8 4 7-9 6-10 7-10 11-18 13-21 7-11 12-19 13-21 8-12 11-17 12-18 11-13 6-3h16l11 3 8 4 6 8 3 8 2 15 1 178v107l-1 56-4 11-6 9-5 4-11 4h-16l-13-5-6-5-6-12-2-9-1-80v-100l1-37h-2l-2 4-12 16-10 16-9 14-5 9-12 18-7 11-9 14-9 11-3 1v2l-14 10-7 1h-6l-12-8-8-7-9-11-24-36-14-22-13-21-10-14-8-9 2 37v66l-1 116-2 10-7 11-6 5-10 4h-17l-12-4-8-7-5-13-2-15v-337l2-9 6-10 7-7 9-4z" fill="#0d66a2"/>
<path transform="translate(1620,203)" d="m0 0h43l40 1 16 2 10 5 6 7 3 6 1 13-2 13-7 14-7 6-5 1-37 1h-145v102h142l34 1 10 3 9 6 6 9 2 6v16l-4 13-6 8-7 5-3 1-15 1-169 1v101h151l30 1 6 2 8 7 6 9 3 9v14l-4 10-6 8-10 6-8 2-13 1h-185l-21-1-8-2-8-6-5-9-3-12-1-5-1-14v-323l4-18 5-9 8-7 7-2 8-1 41-1z" fill="#0d66a2"/>
<path transform="translate(1170,203)" d="m0 0h13l36 3 23 4 19 5 22 9 16 9 12 8 11 8 10 9 8 7 11 12 10 13 12 20 12 25 6 18 5 21 3 22v23l-3 24-6 26-8 22-12 23-8 12-8 11-12 14-9 9-14 11-12 9-22 12-18 8-17 5-29 6-27 3h-37l-17-3-11-4-12-7-12-12-9-16-4-13-2-16v-256l1-22 2-11 5-12 4-6 9-11 11-10 14-7 11-3zm-6 69-2 1-1 3-1 16v250l2 4h26l27-3 25-6 17-8 14-8 17-14 9-9 9-11 8-14 7-15 5-16 3-21v-26l-4-23-5-15-8-16-10-16-13-15-12-10-11-7-15-8-16-6-22-5-23-2z" fill="#0d66a2"/>
<path transform="translate(865,204)" d="m0 0h10l26 3 19 5 20 8 15 9 12 9 13 12 10 11 10 15 8 14 8 20 5 22 2 19 1 32v30l-1 43-2 26-3 20-6 17-8 16-9 14-9 11-3 4h-2l-2 4-4 2v2l-11 9-12 9-18 10-18 6-27 6-8 1h-27l-24-4-21-7-22-11-12-9-10-9-11-11-13-18-9-16-9-22-5-20-3-24v-106l3-23 5-21 8-20 10-18 14-19 12-12 19-14 17-10 14-6 18-5 17-3zm-5 69-15 3-19 8-11 8-7 7-8 10-8 16-5 17-2 16-1 14-1 38v33l2 26 4 17 5 13 8 14 9 10 13 9 14 7 13 4 12 2h15l17-4 12-5 14-8 10-9 9-10 5-9 6-17 3-17 1-26-1-94-4-17-8-16-8-11-13-13-15-9-15-5-14-2z" fill="#0d66a2"/>
<path transform="translate(1037,648)" d="m0 0 32 1 23 2 29 6 26 7 20 7 37 16 21 12 16 10 19 14 13 11 11 9 20 20 7 8 13 16 14 20 13 21 15 29 7 16 3 11v15l-4 7-9 8-14 9-13 1-10-5-5-5-6-7-8-13-14-26-8-14-9-14-12-16-12-14-18-18-11-9-12-9-24-16-22-12-27-11-19-6-21-5-26-4-11-1h-47l-19 2-25 5-31 9-15 6-16 8-16 9-25 17-13 11-12 11-6 5-1 2h-2l-2 4-13 14-14 19-8 13-11 18-9 17-10 16-8 10-7 7-4 2-6-1-12-5-12-8-10-9-3-5v-11l5-15 12-26 12-22 6-10 8-12 14-18 12-14 14-15 1-2h2v-2h2v-2l8-7 10-9 10-8 16-12 15-10 23-13 17-9 27-11 23-7 22-5 23-4 17-2z" fill="#0d66a2"/>
<path transform="translate(1035,785)" d="m0 0 30 1 27 4 21 6 18 7 20 11 17 11 9 7 13 11 8 7 10 11 11 14 10 15 9 16 8 18 7 19 2 8v8l-4 11-9 10-10 6-9 3-11 1-7-3-6-5-9-14-7-14-10-21-11-18-11-13-4-5-8-7-12-9-15-9-17-8-16-5-17-3-11-1h-26l-21 3-19 5-16 8-17 10-13 12h-2l-2 4h-2l-2 4-10 11-10 15-15 28-7 14-8 12-9 10-9-1-12-5-11-6-10-9-3-6-1-4v-11l5-15 3-10 12-25 10-17 10-13 9-11 14-15 10-9 19-14 13-8 16-8 17-7 21-6 21-4z" fill="#0d66a2"/>
<path transform="translate(878,1705)" d="m0 0h15l11 4 8 6 5 11 4 17 4 24 5 15 7 12 10 13 8 8 16 10 17 9 11 6 9 7 8 9 2 5v11l-4 10-11 15-6 5-3 1h-17l-27-9-17-9-14-10-11-9-14-14-11-14-9-15-11-21-7-22-3-17-1-9v-22l7-14 5-6 9-5z" fill="#0d66a2"/>
<path transform="translate(1852)" d="m0 0h10l-2 1v2l-8-1z" fill="#0d66a2"/>
<path transform="translate(953,2045)" d="m0 0 6 1 3 2h-10z" fill="#0d66a2"/>
<path transform="translate(374,364)" d="m0 0" fill="#0d66a2"/>
<path transform="translate(1849)" d="m0 0" fill="#0d66a2"/>
<path transform="translate(199)" d="m0 0" fill="#0d66a2"/>
</svg>